<?xml version="1.0" encoding="UTF-8"?>
<svg id="_图层_1" data-name="图层 1" xmlns="http://www.w3.org/2000/svg" viewBox="0 0 158.09 42.36">
  <defs>
    <style>
      .cls-1 {
        fill: #004fff;
      }

      .cls-2 {
        stroke-width: 5.21px;
      }

      .cls-2, .cls-3 {
        fill: none;
        stroke: #fff;
        stroke-miterlimit: 10;
      }

      .cls-3 {
        stroke-width: 1.49px;
      }
    </style>
  </defs>
  <g>
    <rect class="cls-1" x=".7" y=".66" width="41.03" height="41.03" rx="11.45" ry="11.45"/>
    <g>
      <circle class="cls-3" cx="32.05" cy="10.75" r="2.81"/>
      <rect class="cls-2" x="12.92" y="14" width="9.88" height="20.14" rx="4.73" ry="4.73" transform="translate(22.25 -5.58) rotate(45)"/>
    </g>
  </g>
  <g>
    <path class="cls-1" d="m65.18,19.39l-.9.74c3.01,1.81,6.76,3.06,11.25,3.78l-1.15,2.96c-4.42-1.02-8.35-2.86-11.8-5.5-3.54,2.46-7.54,4.34-11.99,5.64l-.85-1.81c3.19-1.11,6.06-2.56,8.59-4.35-1.39-.35-2.86-.7-4.41-1.07l.25-1.4c1.46.15,3.06.33,4.82.55l-.16,1.56c.75-.56,1.53-1.22,2.35-1.97h-.36v-4.27h-7.2v3.94h-2.96v-5.53h10.15v-1.53h-8.02l-.11-1.48h19.24l-.19,1.48h-7.72v1.53h9.47c.62,0,.93.28.93.85v4.76h-2.98v-4.02h-7.42v4.27h-1.42l2.57.87Zm4.02,6.71c.73,0,1.18.31,1.34.93.15.6-.06,1.07-.63,1.4-1.66.97-3.35,1.9-5.06,2.79,1.64.44,2.86.78,3.67,1.01l-1.04,2.38c-4.01-1.44-8.06-2.84-12.13-4.19l.9-1.5,5.5,1.45c1.73-1.17,3.07-2.1,4.02-2.79h-11.69l-.11-1.45h7.12v-2.49h3.04v2.49l5.06-.03Zm-9.5-8.32c-1.35-.29-2.97-.62-4.84-.98l.19-1.34c2.06.18,3.66.31,4.79.38l-.14,1.94Zm10.46.11l-4.93-.96.19-1.31c2.55.16,4.18.27,4.87.33l-.14,1.94Zm.63,3.39c-1.7-.46-3.4-.89-5.12-1.29l.41-1.34,5.17.6-.47,2.03Z"/>
    <path class="cls-1" d="m102.3,17.53l-.22,1.53h-6.71l1.59,2.25c-3.71,1.5-7.79,3.08-12.26,4.76h11.58l-1.75-2.08,1.59-1.29c2.3,1.95,4.01,3.44,5.12,4.46l-2.27,2.11-1.31-1.59h-5.99v3.97c0,.97-.35,1.62-1.04,1.97-.49.26-1.31.38-2.46.38h-2.96l-.19-1.29h3.15v-5.04h-6.54c-1.19,0-1.82-.4-1.92-1.2-.11-.8.43-1.44,1.61-1.92,1.79-.73,3.13-1.27,4.02-1.62h-2.38c-.93,0-1.49-.33-1.67-.98-.16-.64.14-1.21.9-1.72l1.86-1.18h-6.51l-.14-1.53h10.73v-2.03h-7.91l-.14-1.5h8.05v-1.86h-9.14l-.14-1.53h9.28v-2.24h3.34v2.24h9.33l-.22,1.53h-9.11v1.86h8.13l-.22,1.5h-7.91v2.03h10.84Zm-16.37,12.75c-2.74,1.39-5.27,2.6-7.61,3.64l-.82-3.01c2.54-.8,5.11-1.69,7.72-2.66l.71,2.03Zm2.49-10.78c-.31.18-1.45.81-3.42,1.89h4.3c1.73-.68,3.68-1.45,5.83-2.33h-7.33l.63.44Zm5.61,8.73c3.23,1.19,5.78,2.14,7.66,2.87l-1.37,2.87c-2.61-1.44-5.07-2.76-7.39-3.97l1.09-1.78Z"/>
    <path class="cls-1" d="m129.41,32.31l-.16,1.42h-8.73c-1.3,0-2.15-.21-2.57-.63-.4-.38-.6-1.16-.6-2.33v-3.56c-1.7,3.63-5.57,6.08-11.61,7.34l-.63-1.92c3.76-.99,6.35-2.38,7.77-4.19,1.19-1.5,1.94-3.9,2.27-7.2h3.72c-.2,1.55-.47,2.87-.79,3.97h2.49v7.09h8.84Zm-20.99-12.56h-3.07v-6.1h4.93l-1.59-4.16,2.16-.88c1.17,1.61,2.09,2.95,2.77,4.02l-2.27,1.01h4.82c-.18-.6-.41-1.41-.68-2.44l-.69-2.38,2.19-.68c1.42,2.66,2.23,4.2,2.44,4.6l-2.57.9h3.61c.82-1.82,1.53-3.62,2.13-5.39l3.56,1.18c-.78,1.48-1.67,2.88-2.66,4.21h4.46c.66,0,.98.3.98.9v5.14h-3.12v-4.32h-17.41v4.38Zm13.52,8.35v-8.1h-9.69v8.4h-3.15v-10.1h15c.73,0,1.09.36,1.09,1.07v8.73h-3.26Z"/>
    <path class="cls-1" d="m157.39,30.99l-.16,1.59h-12.64l-.11-1.59h5.23v-2.85h-3.34l-.11-1.56h3.45v-2.66h-2.52c-.6,1.11-1.27,2.16-2,3.15l-1.12-.77v5.97h-11.63V14.68h2.74v-2.82h-2.82l-.11-1.61h11.93l-.19,1.61h-2.71v2.82h.74c.78,0,1.33.14,1.64.41.27.25.41.73.41,1.42v9c.69-1.42,1.31-3.22,1.86-5.39l2.77.47c-.15.4-.38.98-.71,1.75h1.72v-2.63h-4.43v-9.96h8.84c.73,0,1.25.13,1.56.38.29.27.44.74.44,1.4v8.18h-3.5v2.63h4.16l-.19,1.59h-3.97v2.66h3.59l-.16,1.56h-3.42v2.85h4.79Zm-15.74-.33v-5.5h-1.75c-.82,0-1.23-.46-1.23-1.37v-7.53h-.82c-.16,3.91-.8,7.12-1.92,9.63l-1.12-.33v5.09h6.84Zm-6.84-14.4v8.57c.64-2.15.94-5.01.9-8.57h-.9Zm.74,10.46h5.31l-.14,1.42h-5.09l-.08-1.42Zm2.14-12.04h1.01v-2.82h-1.01v2.82Zm3.97,1.59h-1.01v7.77h1.01v-7.77Zm6.35-4.93v2.63h5.31v-2.63h-5.31Zm0,6.76h5.31v-2.71h-5.31v2.71Z"/>
  </g>
</svg>