<?xml version="1.0" encoding="UTF-8"?>
<!-- Generated by Pixelmator Pro 3.6.15 -->
<svg width="42" height="42" viewBox="0 0 42 42" xmlns="http://www.w3.org/2000/svg">
    <g id="g1">
        <path id="path1" fill="#004fff" stroke="none" d="M 12.15 0.299999 L 30.280001 0.299999 C 36.603661 0.299999 41.73 5.426338 41.73 11.75 L 41.73 29.880001 C 41.73 36.203659 36.603661 41.329998 30.280001 41.329998 L 12.15 41.329998 C 5.82634 41.329998 0.7 36.203659 0.7 29.880001 L 0.7 11.75 C 0.7 5.426338 5.82634 0.299999 12.15 0.299999 Z"/>
        <g id="g2">
            <path id="path2" fill="none" stroke="#ffffff" stroke-width="1.49" d="M 34.860001 10.389999 C 34.860001 11.941919 33.601921 13.200001 32.049999 13.200001 C 30.498079 13.200001 29.24 11.941919 29.24 10.389999 C 29.24 8.838081 30.498079 7.580002 32.049999 7.580002 C 33.601921 7.580002 34.860001 8.838081 34.860001 10.389999 Z"/>
            <path id="path3" fill="none" stroke="#ffffff" stroke-width="5.21" d="M 24.83094 16.43993 L 25.127924 16.736914 C 26.975103 18.584093 26.975103 21.578964 25.127924 23.426144 L 17.576023 30.978045 C 15.728843 32.825226 12.733974 32.825226 10.886794 30.978045 L 10.589809 30.681061 C 8.74263 28.833879 8.742628 25.83901 10.589809 23.991831 L 18.14171 16.43993 C 19.98889 14.592751 22.983759 14.592751 24.83094 16.43993 Z"/>
        </g>
    </g>
</svg>
